<svg xmlns="http://www.w3.org/2000/svg" viewBox="0 0 1200 430">
<defs><marker id="arrow" markerWidth="8" markerHeight="8" refX="7" refY="4" orient="auto"><path d="M0 0 L8 4 L0 8 Z" fill="#7d8995"/></marker></defs>
<style>text{font-family:-apple-system,BlinkMacSystemFont,"Segoe UI","PingFang SC","Microsoft YaHei",sans-serif;fill:#182230}.h{font-size:25px;font-weight:700}.t{font-size:20px;font-weight:750}.s{font-size:15px;fill:#536273}.a{stroke:#7d8995;stroke-width:2;fill:none;marker-end:url(#arrow)}</style>
<rect width="1200" height="430" rx="24" fill="#fbfaf7"/>
<text class="h" x="48" y="50">每次活动同时生产两类输出</text>
<rect x="58" y="150" width="250" height="120" rx="18" fill="#20201e"/>
<text x="183" y="202" text-anchor="middle" style="font:750 20px -apple-system,BlinkMacSystemFont,Segoe UI,PingFang SC,Microsoft YaHei,sans-serif;fill:#fff">一次真实科研活动</text>
<text x="183" y="235" text-anchor="middle" style="font:14px -apple-system,BlinkMacSystemFont,Segoe UI,PingFang SC,Microsoft YaHei,sans-serif;fill:#ddd">读文献 · 做实验 · 组会 · 写作</text>
<path class="a" d="M310 185 H430"/><path class="a" d="M310 235 H430"/>
<rect x="440" y="105" width="315" height="125" rx="18" fill="#e9f8f2" stroke="#168c82" stroke-width="2"/>
<text class="t" x="598" y="150" text-anchor="middle">项目产出</text><text class="s" x="598" y="184" text-anchor="middle">数据 · 代码 · 论文 · 决策 · 里程碑</text>
<rect x="440" y="245" width="315" height="125" rx="18" fill="#e8e7f5" stroke="#536cc5" stroke-width="2"/>
<text class="t" x="598" y="290" text-anchor="middle">研究者产出</text><text class="s" x="598" y="324" text-anchor="middle">判断规则 · 方法直觉 · 表达 · 元认知</text>
<path class="a" d="M760 168 H880"/><path class="a" d="M760 307 H880"/>
<rect x="890" y="150" width="252" height="120" rx="18" fill="#fff4de" stroke="#e4aa45" stroke-width="2"/>
<text class="t" x="1016" y="199" text-anchor="middle">长期独立性</text><text class="s" x="1016" y="232" text-anchor="middle">能在新问题上再次做到</text>
<text class="s" x="48" y="405">只检查“这周做出了什么”，会漏掉能力成长；只谈成长而没有真实交付，又会失去研究对象。</text>
</svg>